<?xml version="1.0" encoding="utf-8"?>
<!-- Generator: Adobe Illustrator 21.0.0, SVG Export Plug-In . SVG Version: 6.00 Build 0)  -->
<svg version="1.1" id="Layer_1" xmlns="http://www.w3.org/2000/svg" xmlns:xlink="http://www.w3.org/1999/xlink" x="0px" y="0px"
	 viewBox="0 0 2048 2048" style="enable-background:new 0 0 2048 2048;" xml:space="preserve">
<style type="text/css">
	.st0{fill:#512C62;}
	.st1{fill:#C70D3A;}
</style>
<g>
	<g>
		<polygon class="st0" points="1021,1249.6 901.5,821.9 789.1,1034.6 603.8,1034.6 603.8,1006.6 772.3,1006.6 909.6,746.7 
			1027,1166.9 1170.1,842.8 1240.6,1010 1442.9,1010 1442.9,1038 1222,1038 1169.5,913.5 		"/>
	</g>
	<path class="st1" d="M1225.5,579.2c-78.7,0-149.9,31.8-201.5,83.4c-51.6-51.5-122.8-83.4-201.5-83.4
		c-157.5,0-285.2,127.7-285.2,285.2c0,82.8,35.3,157.4,91.7,209.5l394.9,394.9l394.9-394.9c56.4-52.1,91.7-126.7,91.7-209.5
		C1510.6,706.9,1382.9,579.2,1225.5,579.2z M1399.9,1053.3l-0.4,0.4l-0.4,0.4L1024,1429.2l-375.1-375.1l-0.4-0.4l-0.4-0.4
		c-25.8-23.9-46.2-52.1-60.4-84.1c-14.8-33-22.3-68.3-22.3-104.8c0-68.7,26.7-133.3,75.3-181.8c48.6-48.6,113.1-75.3,181.8-75.3
		c68.6,0,133.1,26.7,181.7,75.2l19.8,19.7l19.8-19.7c48.6-48.5,113.1-75.2,181.7-75.2c68.7,0,133.3,26.7,181.8,75.3
		c48.6,48.6,75.3,113.1,75.3,181.8c0,36.5-7.5,71.8-22.3,104.8C1446.1,1001.1,1425.7,1029.4,1399.9,1053.3z"/>
</g>
</svg>
